<?xml version="1.0" standalone="no"?>
<!DOCTYPE svg PUBLIC "-//W3C//DTD SVG 20010904//EN"
 "http://www.w3.org/TR/2001/REC-SVG-20010904/DTD/svg10.dtd">
<svg version="1.0" xmlns="http://www.w3.org/2000/svg"
 width="700.000000pt" height="700.000000pt" viewBox="0 0 700.000000 700.000000"
 preserveAspectRatio="xMidYMid meet">
<metadata>
Created by potrace 1.14, written by Peter Selinger 2001-2017
</metadata>
<g transform="translate(0.000000,700.000000) scale(0.100000,-0.100000)"
fill="#000000" stroke="none">
<path d="M847 6564 c-1 -1 -31 -5 -67 -8 -246 -26 -469 -156 -614 -360 -48
-67 -120 -210 -131 -261 -35 -153 -34 -123 -34 -2440 0 -1499 3 -2287 10
-2320 6 -27 12 -60 15 -73 24 -119 128 -308 219 -397 152 -150 347 -244 543
-261 101 -9 5371 -9 5442 0 268 34 506 189 644 421 41 68 81 157 92 206 33
134 33 148 33 1779 0 1522 -2 1620 -19 1700 -23 110 -49 177 -105 273 -84 142
-227 273 -371 338 -38 17 -78 35 -89 40 -11 5 -60 18 -110 29 -88 19 -143 19
-2665 20 -1635 0 -2588 4 -2610 10 -47 13 -106 63 -131 112 -61 120 9 274 140
307 21 6 1081 9 2591 10 1405 0 2564 2 2575 4 143 34 248 116 313 246 35 71
37 81 38 176 2 92 -1 108 -28 174 -55 131 -170 229 -308 261 -44 11 -573 13
-2713 14 -1462 1 -2659 0 -2660 0z m4957 -3299 c112 -34 219 -119 264 -208 13
-26 23 -50 23 -54 1 -4 5 -13 9 -18 14 -16 27 -119 23 -172 -16 -227 -207
-403 -434 -404 -299 -1 -510 291 -414 573 47 137 146 235 283 278 67 21 184
23 246 5z"/>
</g>
</svg>
