<svg id="visual" viewBox="0 0 900 300" width="900" height="300" xmlns="http://www.w3.org/2000/svg" xmlns:xlink="http://www.w3.org/1999/xlink" version="1.1"><rect x="0" y="0" width="900" height="300" fill="#001220"></rect><path d="M0 115L21.5 124.3C43 133.7 86 152.3 128.8 159.2C171.7 166 214.3 161 257.2 151.7C300 142.3 343 128.7 385.8 124.8C428.7 121 471.3 127 514.2 135.8C557 144.7 600 156.3 642.8 162.2C685.7 168 728.3 168 771.2 159.7C814 151.3 857 134.7 878.5 126.3L900 118L900 301L878.5 301C857 301 814 301 771.2 301C728.3 301 685.7 301 642.8 301C600 301 557 301 514.2 301C471.3 301 428.7 301 385.8 301C343 301 300 301 257.2 301C214.3 301 171.7 301 128.8 301C86 301 43 301 21.5 301L0 301Z" fill="#161b33"></path><path d="M0 151L21.5 152.7C43 154.3 86 157.7 128.8 161.7C171.7 165.7 214.3 170.3 257.2 168.2C300 166 343 157 385.8 153.2C428.7 149.3 471.3 150.7 514.2 154.3C557 158 600 164 642.8 172.3C685.7 180.7 728.3 191.3 771.2 193.2C814 195 857 188 878.5 184.5L900 181L900 301L878.5 301C857 301 814 301 771.2 301C728.3 301 685.7 301 642.8 301C600 301 557 301 514.2 301C471.3 301 428.7 301 385.8 301C343 301 300 301 257.2 301C214.3 301 171.7 301 128.8 301C86 301 43 301 21.5 301L0 301Z" fill="#212642"></path><path d="M0 174L21.5 179.5C43 185 86 196 128.8 204C171.7 212 214.3 217 257.2 212.5C300 208 343 194 385.8 193.8C428.7 193.7 471.3 207.3 514.2 206.8C557 206.3 600 191.7 642.8 187.5C685.7 183.3 728.3 189.7 771.2 191.2C814 192.7 857 189.3 878.5 187.7L900 186L900 301L878.5 301C857 301 814 301 771.2 301C728.3 301 685.7 301 642.8 301C600 301 557 301 514.2 301C471.3 301 428.7 301 385.8 301C343 301 300 301 257.2 301C214.3 301 171.7 301 128.8 301C86 301 43 301 21.5 301L0 301Z" fill="#2d3152"></path><path d="M0 245L21.5 240.7C43 236.3 86 227.7 128.8 222.3C171.7 217 214.3 215 257.2 218.7C300 222.3 343 231.7 385.8 233C428.7 234.3 471.3 227.7 514.2 228C557 228.3 600 235.7 642.8 236.5C685.7 237.3 728.3 231.7 771.2 232.2C814 232.7 857 239.3 878.5 242.7L900 246L900 301L878.5 301C857 301 814 301 771.2 301C728.3 301 685.7 301 642.8 301C600 301 557 301 514.2 301C471.3 301 428.7 301 385.8 301C343 301 300 301 257.2 301C214.3 301 171.7 301 128.8 301C86 301 43 301 21.5 301L0 301Z" fill="#3a3d62"></path><path d="M0 269L21.5 269.8C43 270.7 86 272.3 128.8 270.8C171.7 269.3 214.3 264.7 257.2 263.2C300 261.7 343 263.3 385.8 263.2C428.7 263 471.3 261 514.2 263.2C557 265.3 600 271.7 642.8 273.7C685.7 275.7 728.3 273.3 771.2 271C814 268.7 857 266.3 878.5 265.2L900 264L900 301L878.5 301C857 301 814 301 771.2 301C728.3 301 685.7 301 642.8 301C600 301 557 301 514.2 301C471.3 301 428.7 301 385.8 301C343 301 300 301 257.2 301C214.3 301 171.7 301 128.8 301C86 301 43 301 21.5 301L0 301Z" fill="#474973"></path></svg>