<svg id="visual" viewBox="0 0 960 540" width="960" height="540" xmlns="http://www.w3.org/2000/svg" xmlns:xlink="http://www.w3.org/1999/xlink" version="1.1"><rect x="0" y="0" width="960" height="540" fill="#001220"></rect><path d="M0 316L22.8 319.3C45.7 322.7 91.3 329.3 137 325C182.7 320.7 228.3 305.3 274 295.5C319.7 285.7 365.3 281.3 411.2 284.7C457 288 503 299 548.8 307.3C594.7 315.7 640.3 321.3 686 328.5C731.7 335.7 777.3 344.3 823 344C868.7 343.7 914.3 334.3 937.2 329.7L960 325L960 541L937.2 541C914.3 541 868.7 541 823 541C777.3 541 731.7 541 686 541C640.3 541 594.7 541 548.8 541C503 541 457 541 411.2 541C365.3 541 319.7 541 274 541C228.3 541 182.7 541 137 541C91.3 541 45.7 541 22.8 541L0 541Z" fill="#161b33"></path><path d="M0 386L22.8 385C45.7 384 91.3 382 137 378.2C182.7 374.3 228.3 368.7 274 361.5C319.7 354.3 365.3 345.7 411.2 347.2C457 348.7 503 360.3 548.8 366.8C594.7 373.3 640.3 374.7 686 369.8C731.7 365 777.3 354 823 350.2C868.7 346.3 914.3 349.7 937.2 351.3L960 353L960 541L937.2 541C914.3 541 868.7 541 823 541C777.3 541 731.7 541 686 541C640.3 541 594.7 541 548.8 541C503 541 457 541 411.2 541C365.3 541 319.7 541 274 541C228.3 541 182.7 541 137 541C91.3 541 45.7 541 22.8 541L0 541Z" fill="#1f243f"></path><path d="M0 401L22.8 405C45.7 409 91.3 417 137 420.2C182.7 423.3 228.3 421.7 274 416C319.7 410.3 365.3 400.7 411.2 394.2C457 387.7 503 384.3 548.8 384C594.7 383.7 640.3 386.3 686 387.8C731.7 389.3 777.3 389.7 823 394.2C868.7 398.7 914.3 407.3 937.2 411.7L960 416L960 541L937.2 541C914.3 541 868.7 541 823 541C777.3 541 731.7 541 686 541C640.3 541 594.7 541 548.8 541C503 541 457 541 411.2 541C365.3 541 319.7 541 274 541C228.3 541 182.7 541 137 541C91.3 541 45.7 541 22.8 541L0 541Z" fill="#282c4c"></path><path d="M0 420L22.8 416.5C45.7 413 91.3 406 137 409.2C182.7 412.3 228.3 425.7 274 435.5C319.7 445.3 365.3 451.7 411.2 454.7C457 457.7 503 457.3 548.8 455.7C594.7 454 640.3 451 686 443.7C731.7 436.3 777.3 424.7 823 419.2C868.7 413.7 914.3 414.3 937.2 414.7L960 415L960 541L937.2 541C914.3 541 868.7 541 823 541C777.3 541 731.7 541 686 541C640.3 541 594.7 541 548.8 541C503 541 457 541 411.2 541C365.3 541 319.7 541 274 541C228.3 541 182.7 541 137 541C91.3 541 45.7 541 22.8 541L0 541Z" fill="#323658"></path><path d="M0 455L22.8 451.2C45.7 447.3 91.3 439.7 137 444.2C182.7 448.7 228.3 465.3 274 466.5C319.7 467.7 365.3 453.3 411.2 452C457 450.7 503 462.3 548.8 468.2C594.7 474 640.3 474 686 475.3C731.7 476.7 777.3 479.3 823 476.5C868.7 473.7 914.3 465.3 937.2 461.2L960 457L960 541L937.2 541C914.3 541 868.7 541 823 541C777.3 541 731.7 541 686 541C640.3 541 594.7 541 548.8 541C503 541 457 541 411.2 541C365.3 541 319.7 541 274 541C228.3 541 182.7 541 137 541C91.3 541 45.7 541 22.8 541L0 541Z" fill="#3c3f66"></path><path d="M0 477L22.8 480.8C45.7 484.7 91.3 492.3 137 492.7C182.7 493 228.3 486 274 481.8C319.7 477.7 365.3 476.3 411.2 479.3C457 482.3 503 489.7 548.8 491.2C594.7 492.7 640.3 488.3 686 484.7C731.7 481 777.3 478 823 478C868.7 478 914.3 481 937.2 482.5L960 484L960 541L937.2 541C914.3 541 868.7 541 823 541C777.3 541 731.7 541 686 541C640.3 541 594.7 541 548.8 541C503 541 457 541 411.2 541C365.3 541 319.7 541 274 541C228.3 541 182.7 541 137 541C91.3 541 45.7 541 22.8 541L0 541Z" fill="#474973"></path></svg>